<mxfile host="app.diagrams.net" modified="2021-08-25T10:36:18.871Z" agent="5.0 (Windows NT 10.0; Win64; x64) AppleWebKit/537.36 (KHTML, like Gecko) Chrome/92.0.4515.159 Safari/537.36 Edg/92.0.902.78" etag="c6M5tFp-K5B7QH8BzQzX" version="14.9.8" type="github">
  <diagram id="lkhqYN3q01pNEpYUq4vx" name="Page-1">
    <mxGraphModel dx="1582" dy="2078" grid="1" gridSize="10" guides="1" tooltips="1" connect="1" arrows="1" fold="1" page="0" pageScale="1" pageWidth="827" pageHeight="1169" math="0" shadow="0">
      <root>
        <mxCell id="0" />
        <mxCell id="1" parent="0" />
        <mxCell id="USP_9mEqmEUjSbpP8-R_-1" value="" style="rounded=0;whiteSpace=wrap;html=1;strokeWidth=2;" vertex="1" parent="1">
          <mxGeometry x="-540" y="-1356" width="100" height="130" as="geometry" />
        </mxCell>
        <mxCell id="USP_9mEqmEUjSbpP8-R_-2" value="" style="rounded=0;whiteSpace=wrap;html=1;strokeWidth=2;" vertex="1" parent="1">
          <mxGeometry x="-220" y="-1356" width="100" height="130" as="geometry" />
        </mxCell>
        <mxCell id="USP_9mEqmEUjSbpP8-R_-3" value="" style="ellipse;whiteSpace=wrap;html=1;aspect=fixed;" vertex="1" parent="1">
          <mxGeometry x="-346.5" y="-1316" width="30" height="30" as="geometry" />
        </mxCell>
        <mxCell id="USP_9mEqmEUjSbpP8-R_-4" value="" style="endArrow=classic;html=1;" edge="1" parent="1">
          <mxGeometry width="50" height="50" relative="1" as="geometry">
            <mxPoint x="-690" y="-1306" as="sourcePoint" />
            <mxPoint x="-540" y="-1306" as="targetPoint" />
          </mxGeometry>
        </mxCell>
        <mxCell id="USP_9mEqmEUjSbpP8-R_-5" value="" style="endArrow=classic;html=1;entryX=0;entryY=0.5;entryDx=0;entryDy=0;" edge="1" parent="1" target="USP_9mEqmEUjSbpP8-R_-3">
          <mxGeometry width="50" height="50" relative="1" as="geometry">
            <mxPoint x="-439" y="-1301" as="sourcePoint" />
            <mxPoint x="-390" y="-1346" as="targetPoint" />
          </mxGeometry>
        </mxCell>
        <mxCell id="USP_9mEqmEUjSbpP8-R_-6" value="" style="endArrow=classic;html=1;entryX=0.001;entryY=0.425;entryDx=0;entryDy=0;entryPerimeter=0;exitX=1;exitY=0.5;exitDx=0;exitDy=0;" edge="1" parent="1" source="USP_9mEqmEUjSbpP8-R_-3" target="USP_9mEqmEUjSbpP8-R_-2">
          <mxGeometry width="50" height="50" relative="1" as="geometry">
            <mxPoint x="-316" y="-1296" as="sourcePoint" />
            <mxPoint x="-266" y="-1346" as="targetPoint" />
          </mxGeometry>
        </mxCell>
        <mxCell id="USP_9mEqmEUjSbpP8-R_-7" value="" style="endArrow=classic;html=1;" edge="1" parent="1">
          <mxGeometry width="50" height="50" relative="1" as="geometry">
            <mxPoint x="-120" y="-1301.42" as="sourcePoint" />
            <mxPoint x="-20" y="-1301.42" as="targetPoint" />
          </mxGeometry>
        </mxCell>
        <mxCell id="USP_9mEqmEUjSbpP8-R_-9" value="" style="ellipse;whiteSpace=wrap;html=1;aspect=fixed;" vertex="1" parent="1">
          <mxGeometry x="-600" y="-1276" width="30" height="30" as="geometry" />
        </mxCell>
        <mxCell id="USP_9mEqmEUjSbpP8-R_-12" value="" style="endArrow=classic;html=1;exitX=1;exitY=0.5;exitDx=0;exitDy=0;entryX=0.014;entryY=0.731;entryDx=0;entryDy=0;entryPerimeter=0;" edge="1" parent="1" source="USP_9mEqmEUjSbpP8-R_-9" target="USP_9mEqmEUjSbpP8-R_-1">
          <mxGeometry width="50" height="50" relative="1" as="geometry">
            <mxPoint x="-590" y="-1216" as="sourcePoint" />
            <mxPoint x="-539" y="-1262" as="targetPoint" />
          </mxGeometry>
        </mxCell>
        <mxCell id="USP_9mEqmEUjSbpP8-R_-34" value="" style="edgeStyle=none;rounded=0;orthogonalLoop=1;jettySize=auto;html=1;" edge="1" parent="1" source="USP_9mEqmEUjSbpP8-R_-19">
          <mxGeometry relative="1" as="geometry">
            <mxPoint x="-221" y="-1256" as="targetPoint" />
            <Array as="points">
              <mxPoint x="-320" y="-1161" />
              <mxPoint x="-320" y="-1256" />
              <mxPoint x="-290" y="-1256" />
            </Array>
          </mxGeometry>
        </mxCell>
        <mxCell id="USP_9mEqmEUjSbpP8-R_-19" value="" style="ellipse;whiteSpace=wrap;html=1;aspect=fixed;" vertex="1" parent="1">
          <mxGeometry x="-480" y="-1176" width="30" height="30" as="geometry" />
        </mxCell>
        <mxCell id="USP_9mEqmEUjSbpP8-R_-27" value="" style="endArrow=none;html=1;entryX=0;entryY=0.5;entryDx=0;entryDy=0;exitX=0;exitY=0.5;exitDx=0;exitDy=0;" edge="1" parent="1" source="USP_9mEqmEUjSbpP8-R_-19" target="USP_9mEqmEUjSbpP8-R_-9">
          <mxGeometry width="50" height="50" relative="1" as="geometry">
            <mxPoint x="-630" y="-1156" as="sourcePoint" />
            <mxPoint x="-610" y="-1256" as="targetPoint" />
            <Array as="points">
              <mxPoint x="-630" y="-1161" />
              <mxPoint x="-630" y="-1261" />
            </Array>
          </mxGeometry>
        </mxCell>
        <mxCell id="USP_9mEqmEUjSbpP8-R_-32" value="" style="endArrow=none;html=1;" edge="1" parent="1">
          <mxGeometry width="50" height="50" relative="1" as="geometry">
            <mxPoint x="-690" y="-1261.17" as="sourcePoint" />
            <mxPoint x="-620" y="-1261" as="targetPoint" />
          </mxGeometry>
        </mxCell>
        <mxCell id="USP_9mEqmEUjSbpP8-R_-33" value="" style="shape=waypoint;size=6;pointerEvents=1;points=[];fillColor=#ffffff;resizable=0;rotatable=0;perimeter=centerPerimeter;snapToPoint=1;" vertex="1" parent="1">
          <mxGeometry x="-640" y="-1281" width="40" height="40" as="geometry" />
        </mxCell>
        <mxCell id="USP_9mEqmEUjSbpP8-R_-35" value="&lt;font style=&quot;font-size: 18px&quot;&gt;Data in&lt;/font&gt;" style="text;html=1;align=center;verticalAlign=middle;resizable=0;points=[];autosize=1;strokeColor=none;" vertex="1" parent="1">
          <mxGeometry x="-765" y="-1316" width="70" height="20" as="geometry" />
        </mxCell>
        <mxCell id="USP_9mEqmEUjSbpP8-R_-36" value="Clock in" style="text;html=1;align=center;verticalAlign=middle;resizable=0;points=[];autosize=1;strokeColor=none;fontSize=18;" vertex="1" parent="1">
          <mxGeometry x="-770" y="-1276" width="80" height="30" as="geometry" />
        </mxCell>
        <mxCell id="USP_9mEqmEUjSbpP8-R_-37" value="Tclk1" style="text;html=1;align=center;verticalAlign=middle;resizable=0;points=[];autosize=1;strokeColor=none;fontSize=18;" vertex="1" parent="1">
          <mxGeometry x="-615" y="-1301" width="60" height="30" as="geometry" />
        </mxCell>
        <mxCell id="USP_9mEqmEUjSbpP8-R_-38" value="Tclk2" style="text;html=1;align=center;verticalAlign=middle;resizable=0;points=[];autosize=1;strokeColor=none;fontSize=18;" vertex="1" parent="1">
          <mxGeometry x="-495" y="-1201" width="60" height="30" as="geometry" />
        </mxCell>
        <mxCell id="USP_9mEqmEUjSbpP8-R_-39" value="Tdata" style="text;html=1;align=center;verticalAlign=middle;resizable=0;points=[];autosize=1;strokeColor=none;fontSize=18;" vertex="1" parent="1">
          <mxGeometry x="-361.5" y="-1351" width="60" height="30" as="geometry" />
        </mxCell>
        <mxCell id="USP_9mEqmEUjSbpP8-R_-40" value="D" style="text;html=1;strokeColor=none;fillColor=none;align=center;verticalAlign=middle;whiteSpace=wrap;rounded=0;fontSize=18;" vertex="1" parent="1">
          <mxGeometry x="-540" y="-1316" width="40" height="20" as="geometry" />
        </mxCell>
        <mxCell id="USP_9mEqmEUjSbpP8-R_-41" value="Q" style="text;html=1;strokeColor=none;fillColor=none;align=center;verticalAlign=middle;whiteSpace=wrap;rounded=0;fontSize=18;" vertex="1" parent="1">
          <mxGeometry x="-475" y="-1316" width="40" height="20" as="geometry" />
        </mxCell>
        <mxCell id="USP_9mEqmEUjSbpP8-R_-43" value="D" style="text;html=1;strokeColor=none;fillColor=none;align=center;verticalAlign=middle;whiteSpace=wrap;rounded=0;fontSize=18;" vertex="1" parent="1">
          <mxGeometry x="-220" y="-1316" width="40" height="20" as="geometry" />
        </mxCell>
        <mxCell id="USP_9mEqmEUjSbpP8-R_-44" value="Q" style="text;html=1;strokeColor=none;fillColor=none;align=center;verticalAlign=middle;whiteSpace=wrap;rounded=0;fontSize=18;" vertex="1" parent="1">
          <mxGeometry x="-160" y="-1316" width="40" height="20" as="geometry" />
        </mxCell>
        <mxCell id="USP_9mEqmEUjSbpP8-R_-45" value="Tco" style="text;html=1;strokeColor=none;fillColor=none;align=center;verticalAlign=middle;whiteSpace=wrap;rounded=0;fontSize=18;" vertex="1" parent="1">
          <mxGeometry x="-510" y="-1261" width="40" height="20" as="geometry" />
        </mxCell>
        <mxCell id="USP_9mEqmEUjSbpP8-R_-46" value="" style="endArrow=classic;html=1;fontSize=18;strokeWidth=5;fillColor=#d5e8d4;strokeColor=#82b366;entryX=0;entryY=1;entryDx=0;entryDy=0;" edge="1" parent="1" target="USP_9mEqmEUjSbpP8-R_-43">
          <mxGeometry width="50" height="50" relative="1" as="geometry">
            <mxPoint x="-690" y="-1266" as="sourcePoint" />
            <mxPoint x="-460" y="-1296" as="targetPoint" />
            <Array as="points">
              <mxPoint x="-520" y="-1268" />
              <mxPoint x="-460" y="-1268" />
              <mxPoint x="-460" y="-1296" />
            </Array>
          </mxGeometry>
        </mxCell>
        <mxCell id="USP_9mEqmEUjSbpP8-R_-48" value="" style="endArrow=classic;html=1;fontSize=18;strokeWidth=5;entryX=-0.014;entryY=0.849;entryDx=0;entryDy=0;entryPerimeter=0;fillColor=#fff2cc;strokeColor=#d6b656;" edge="1" parent="1" target="USP_9mEqmEUjSbpP8-R_-2">
          <mxGeometry width="50" height="50" relative="1" as="geometry">
            <mxPoint x="-640" y="-1261" as="sourcePoint" />
            <mxPoint x="-300" y="-1276" as="targetPoint" />
            <Array as="points">
              <mxPoint x="-640" y="-1176" />
              <mxPoint x="-300" y="-1176" />
              <mxPoint x="-300" y="-1246" />
            </Array>
          </mxGeometry>
        </mxCell>
        <mxCell id="USP_9mEqmEUjSbpP8-R_-49" value="" style="rounded=0;whiteSpace=wrap;html=1;fontSize=18;strokeWidth=2;fillColor=none;dashed=1;" vertex="1" parent="1">
          <mxGeometry x="-790" y="-1450" width="810" height="371" as="geometry" />
        </mxCell>
        <mxCell id="USP_9mEqmEUjSbpP8-R_-50" value="第二讲图1" style="text;html=1;strokeColor=none;fillColor=none;align=center;verticalAlign=middle;whiteSpace=wrap;rounded=0;dashed=1;fontSize=18;" vertex="1" parent="1">
          <mxGeometry x="-785" y="-1444" width="90" height="20" as="geometry" />
        </mxCell>
        <mxCell id="USP_9mEqmEUjSbpP8-R_-52" value="" style="rounded=0;whiteSpace=wrap;html=1;fontSize=18;strokeWidth=2;fillColor=none;dashed=1;" vertex="1" parent="1">
          <mxGeometry x="100" y="-1450" width="810" height="371" as="geometry" />
        </mxCell>
        <mxCell id="USP_9mEqmEUjSbpP8-R_-53" value="第二讲图2" style="text;html=1;strokeColor=none;fillColor=none;align=center;verticalAlign=middle;whiteSpace=wrap;rounded=0;dashed=1;fontSize=18;" vertex="1" parent="1">
          <mxGeometry x="120" y="-1444" width="90" height="20" as="geometry" />
        </mxCell>
      </root>
    </mxGraphModel>
  </diagram>
</mxfile>
